<?xml version="1.0" encoding="utf-8"?>
<!-- Generator: Adobe Illustrator 28.1.0, SVG Export Plug-In . SVG Version: 6.00 Build 0)  -->
<svg version="1.1" id="Calque_1" xmlns="http://www.w3.org/2000/svg" xmlns:xlink="http://www.w3.org/1999/xlink" x="0px" y="0px"
	 viewBox="0 0 300 300" style="enable-background:new 0 0 300 300;" xml:space="preserve">
<g>
	<path d="M175.3,100c0,11.3-0.1,22.2,0,33.1c0.1,4.9,0,9.9,1,14.6c2.2,10.7,10.3,17.9,21.2,18.9c6.9,0.6,13.8,0.4,20.7,0.5
		c6.3,0.1,12.7,0.1,19,0c2.4,0,3.9,1,4.9,3.1c3,6.2,6,12.4,9.2,18.6c1.2,2.3,1.1,4.2-0.6,6.2c-7.6,8.6-14.9,17.5-23,25.6
		c-17.2,17.3-37,30.9-59,41.3c-19.5,9.3-40,15.5-61.2,19.2c-19.5,3.4-39.1,3.3-58.8,3.1c-4.8-0.1-9.7,0.1-14.5-0.6
		c-9.7-1.4-17.3-9.9-18.3-19.8c-1-10.3,4.9-20.7,14.2-23.7c7.7-2.5,15.7-4.2,23.7-5.8c13.5-2.7,25.9-7.5,36.3-16.7
		c7-6.2,12.4-13.7,16.6-22c15.3-30.6,30.6-61.1,45.9-91.7c1.4-2.8,3.4-4,6.5-3.9C164.5,100.1,169.7,100,175.3,100z"/>
	<path d="M241.9,67.9c2.1-6.2,2.4-12.4,0.7-18.5c-1.2-4.3-3.3-8.3-5-12.5c-0.9-2.4-2.2-4.7-2.6-7.2c-1-6.2,2.4-11.3,8.4-13.3
		c5.1-1.8,11.3,1,14.8,6.7c11,18,13.1,36.9,5.5,56.6c-1.3,3.3-0.8,5.8,1.4,8.4c13.6,16.5,20.7,35.3,19.2,56.7
		c-0.5,7.7-2.4,15.2-4,22.8c-0.7,3.5-2.4,6.7-6.5,7.4c-4.7,0.8-9-0.3-11.7-4.4c-2.1-3.2-3.5-6.8-5.1-10.2c-0.8-1.6-1.5-3.4-2.5-4.9
		c-2.7-4.2-6.8-5.9-11.7-5.9c-11.7,0-23.3,0-35,0c-1.7,0-3.3-0.2-5-0.5c-5.7-1.1-9.2-4.7-9.8-10.5c-0.4-3.8-0.4-7.6-0.4-11.5
		c-0.1-9.9,0-19.8,0-29.7c0-1.4,0-2.9-0.3-4.2c-1.2-6.5-5.1-10-11.7-10.6c-4.4-0.4-8.8-0.4-13.2-1c-4.5-0.6-7-3.2-7.6-7.1
		c-0.6-3.7,1-6.6,5.2-8.7c13.1-6.7,27.1-8.7,41.7-7.8c11.5,0.7,22.5,3.6,32.7,9.1C240.1,67.4,240.9,67.6,241.9,67.9z"/>
</g>
</svg>
